# xmcd
#
# Track frame offsets:
#	150
#	12052
#	22232
#	38062
#	52662
#	65164
#	77367
#	87642
#	110379
#	126977
#	139405
#	152925
#	165165
#	187952
#	202272
#	214002
#
# Disc length: 3033 seconds
#
# Revision: 17
# Processed by: cddbd v1.5PL3 Copyright (c) Steve Scherf et al.
# Submitted via: dBpowerAMP V4.0
#
DISCID=da0bd710
DTITLE=Rechard Claydebman - Ballade Four Adeline
DYEAR=1900
DGENRE=Classical
TTITLE0=Ballade Four Adeline
TTITLE1=Till
TTITLE2=Dolannes Melody
TTITLE3=Ping Pong Sousles Arbres
TTITLE4=L' Ocean
TTITLE5=Mariage D' Amour
TTITLE6=Jardin Secret
TTITLE7=Sentimental Melody
TTITLE8=Couleur Tendresse
TTITLE9=Letter A Ma Mere
TTITLE10=Nostalgy
TTITLE11=Plaisir D' Amour
TTITLE12=Rhapsody In Blue
TTITLE13=Hello
TTITLE14=Aline
TTITLE15=Voyage A Venice
EXTD=Fair Fox\n\n艺人: Rechard Claydebman\n专辑: Ballade Four Adeline\n流派: Classical\n注释: \n年份: \n\n 1  Ballade Four Adeline   [2.38]\n 2  Till   [2.15]\n 3  Dolannes Melody   [3.31]\n 4  Ping Pong Sousles Arbres   [3.14]\n 5  L' Ocean   [2.46]\n 
EXTD=6  Mariage D' Amour   [2.42]\n 7  Jardin Secret   [2.17]\n 8  Sentimental Melody   [5.03]\n 9  Couleur Tendresse   [3.41]\n10  Letter A Ma Mere   [2.45]\n11  Nostalgy   [3.00]\n12  Plaisir D' Amour   [2.43]\n13  Rhapsody In Blue   [5.03]\n14  Hello
EXTD=[3.10]\n15  Aline   [2.36]\n16  Voyage A Venice   [3.00]
EXTT0=
EXTT1=
EXTT2=
EXTT3=
EXTT4=
EXTT5=
EXTT6=
EXTT7=
EXTT8=
EXTT9=
EXTT10=
EXTT11=
EXTT12=
EXTT13=
EXTT14=
EXTT15=
PLAYORDER=
